<svg width="378" height="124" viewBox="0 0 378 124" fill="none" xmlns="http://www.w3.org/2000/svg">
<path d="M0 1.43145C0 0.640883 0.640886 0 1.43146 0C26.7298 0 47.2381 20.5083 47.2381 45.8066V122.569C47.2381 123.359 46.5972 124 45.8066 124C20.5083 124 0 103.492 0 78.1934V1.43145Z" fill="white"/>
<path d="M56.0952 45.4885C56.0952 20.3659 76.4612 0 101.584 0C102.55 0 103.333 0.783304 103.333 1.74956V28.321C103.333 53.4436 82.9674 73.8095 57.8448 73.8095C56.8785 73.8095 56.0952 73.0262 56.0952 72.06V45.4885Z" fill="white"/>
<path d="M56.0952 84.32C56.0952 83.4068 56.8355 82.6666 57.7486 82.6666H84.32C106.235 82.6666 124 100.432 124 122.347C124 123.26 123.26 124 122.347 124H95.7752C73.8606 124 56.0952 106.235 56.0952 84.32Z" fill="white"/>
<path d="M152.16 32.204H158.624V79.5H152.16V32.204ZM158.688 63.948L172.832 48.78H180.704L166.496 63.948L182.176 79.5H174.304L158.688 63.948ZM196.106 80.46C192.394 80.46 189.407 79.5213 187.146 77.644C184.927 75.724 183.818 73.1427 183.818 69.9C183.818 66.4867 184.884 63.8627 187.018 62.028C189.194 60.1507 192.266 59.212 196.234 59.212C200.458 59.212 204.042 60.0653 206.986 61.772V60.172C206.986 57.74 206.239 55.948 204.746 54.796C203.295 53.6013 200.991 53.004 197.833 53.004C195.956 53.004 194.122 53.196 192.33 53.58C190.58 53.9213 189.002 54.412 187.594 55.052V49.804C188.874 49.2067 190.538 48.7373 192.586 48.396C194.634 48.012 196.618 47.82 198.538 47.82C203.615 47.82 207.37 48.9507 209.802 51.212C212.276 53.4307 213.514 56.524 213.514 60.492V79.5H207.434V76.044C206.111 77.4947 204.532 78.604 202.698 79.372C200.906 80.0973 198.708 80.46 196.106 80.46ZM197.706 75.532C199.754 75.532 201.61 75.1267 203.274 74.316C204.938 73.5053 206.175 72.3747 206.986 70.924V66.764C204.212 64.972 201.119 64.076 197.706 64.076C195.231 64.076 193.375 64.5667 192.138 65.548C190.943 66.4867 190.345 67.9373 190.345 69.9C190.345 73.6547 192.799 75.532 197.706 75.532ZM221.535 48.78H227.807V53.324C230.964 49.6547 235.231 47.82 240.607 47.82C243.679 47.82 246.431 48.5027 248.863 49.868C251.338 51.2333 253.258 53.1533 254.623 55.628C256.031 58.06 256.735 60.8973 256.735 64.14C256.735 67.34 256.031 70.1773 254.623 72.652C253.258 75.1267 251.359 77.0467 248.927 78.412C246.495 79.7773 243.722 80.46 240.607 80.46C238.047 80.46 235.658 80.0333 233.439 79.18C231.22 78.3267 229.407 77.068 227.999 75.404V93.516H221.535V48.78ZM239.135 75.34C241.226 75.34 243.103 74.892 244.767 73.996C246.474 73.0573 247.796 71.7347 248.735 70.028C249.716 68.3213 250.207 66.3587 250.207 64.14C250.207 61.9213 249.716 59.98 248.735 58.316C247.796 56.6093 246.474 55.308 244.767 54.412C243.103 53.4733 241.226 53.004 239.135 53.004C236.532 53.004 234.228 53.6867 232.223 55.052C230.26 56.4173 228.852 58.2947 227.999 60.684V67.596C228.724 69.9427 230.111 71.82 232.159 73.228C234.207 74.636 236.532 75.34 239.135 75.34ZM263.785 48.78H270.057V53.324C273.214 49.6547 277.481 47.82 282.857 47.82C285.929 47.82 288.681 48.5027 291.113 49.868C293.588 51.2333 295.508 53.1533 296.873 55.628C298.281 58.06 298.985 60.8973 298.985 64.14C298.985 67.34 298.281 70.1773 296.873 72.652C295.508 75.1267 293.609 77.0467 291.177 78.412C288.745 79.7773 285.972 80.46 282.857 80.46C280.297 80.46 277.908 80.0333 275.689 79.18C273.47 78.3267 271.657 77.068 270.249 75.404V93.516H263.785V48.78ZM281.385 75.34C283.476 75.34 285.353 74.892 287.017 73.996C288.724 73.0573 290.046 71.7347 290.985 70.028C291.966 68.3213 292.457 66.3587 292.457 64.14C292.457 61.9213 291.966 59.98 290.985 58.316C290.046 56.6093 288.724 55.308 287.017 54.412C285.353 53.4733 283.476 53.004 281.385 53.004C278.782 53.004 276.478 53.6867 274.473 55.052C272.51 56.4173 271.102 58.2947 270.249 60.684V67.596C270.974 69.9427 272.361 71.82 274.409 73.228C276.457 74.636 278.782 75.34 281.385 75.34ZM306.035 32.204H312.499V79.5H306.035V32.204ZM312.563 63.948L326.707 48.78H334.579L320.371 63.948L336.051 79.5H328.179L312.563 63.948ZM359.369 80.46C353.694 80.46 349.235 79.052 345.993 76.236C342.793 73.3773 341.193 69.3667 341.193 64.204C341.193 59.1693 342.622 55.18 345.481 52.236C348.382 49.292 352.499 47.82 357.833 47.82C361.374 47.82 364.382 48.5027 366.857 49.868C369.331 51.1907 371.187 53.0467 372.425 55.436C373.705 57.7827 374.345 60.4707 374.345 63.5V66.7H347.337C347.55 69.6013 348.766 71.7773 350.985 73.228C353.246 74.636 356.297 75.34 360.137 75.34C362.099 75.34 364.083 75.1693 366.089 74.828C368.094 74.444 369.865 73.9533 371.401 73.356V78.54C370.035 79.0947 368.222 79.5427 365.961 79.884C363.742 80.268 361.545 80.46 359.369 80.46ZM368.265 62.156C368.179 59.2547 367.219 57.0147 365.385 55.436C363.593 53.8147 361.033 53.004 357.705 53.004C354.462 53.004 351.945 53.836 350.153 55.5C348.361 57.164 347.422 59.3827 347.337 62.156H368.265Z" fill="white"/>
<path d="M332.208 104.5C331.888 104.5 331.616 104.396 331.392 104.188C331.184 103.964 331.08 103.692 331.08 103.372C331.08 103.052 331.184 102.78 331.392 102.556C331.616 102.332 331.888 102.22 332.208 102.22C332.528 102.22 332.8 102.332 333.024 102.556C333.248 102.78 333.36 103.052 333.36 103.372C333.36 103.692 333.248 103.964 333.024 104.188C332.8 104.396 332.528 104.5 332.208 104.5ZM341.558 104.86C340.406 104.86 339.366 104.612 338.438 104.116C337.526 103.604 336.806 102.892 336.278 101.98C335.766 101.052 335.51 99.98 335.51 98.764C335.51 97.564 335.766 96.5 336.278 95.572C336.806 94.644 337.526 93.924 338.438 93.412C339.366 92.884 340.406 92.62 341.558 92.62C343.638 92.62 345.214 93.252 346.286 94.516V86.764H348.71V104.5H346.358V102.82C345.718 103.524 345.014 104.044 344.246 104.38C343.494 104.7 342.598 104.86 341.558 104.86ZM342.11 102.94C343.102 102.94 343.966 102.684 344.702 102.172C345.454 101.644 345.982 100.94 346.286 100.06V97.468C346.014 96.588 345.494 95.884 344.726 95.356C343.974 94.828 343.102 94.564 342.11 94.564C341.326 94.564 340.614 94.74 339.974 95.092C339.35 95.444 338.854 95.94 338.486 96.58C338.134 97.22 337.958 97.948 337.958 98.764C337.958 99.58 338.134 100.308 338.486 100.948C338.854 101.588 339.35 102.084 339.974 102.436C340.614 102.772 341.326 102.94 342.11 102.94ZM358.169 104.86C356.041 104.86 354.369 104.332 353.153 103.276C351.953 102.204 351.353 100.7 351.353 98.764C351.353 96.876 351.889 95.38 352.961 94.276C354.049 93.172 355.593 92.62 357.593 92.62C358.921 92.62 360.049 92.876 360.977 93.388C361.905 93.884 362.601 94.58 363.065 95.476C363.545 96.356 363.785 97.364 363.785 98.5V99.7H353.657C353.737 100.788 354.193 101.604 355.025 102.148C355.873 102.676 357.017 102.94 358.457 102.94C359.193 102.94 359.937 102.876 360.689 102.748C361.441 102.604 362.105 102.42 362.681 102.196V104.14C362.169 104.348 361.489 104.516 360.641 104.644C359.809 104.788 358.985 104.86 358.169 104.86ZM361.505 97.996C361.473 96.908 361.113 96.068 360.425 95.476C359.753 94.868 358.793 94.564 357.545 94.564C356.329 94.564 355.385 94.876 354.713 95.5C354.041 96.124 353.689 96.956 353.657 97.996H361.505ZM364.994 92.98H367.562L370.946 101.26L374.33 92.98H376.898L372.002 104.5H369.89L364.994 92.98Z" fill="white"/>
</svg>
