<svg width="168" height="168" viewBox="0 0 168 168" fill="none" xmlns="http://www.w3.org/2000/svg">
<path d="M0 1.93939C0 0.868293 0.868296 0 1.93939 0C36.2145 0 64 27.7855 64 62.0606V166.061C64 167.132 63.1317 168 62.0606 168C27.7855 168 0 140.215 0 105.939V1.93939Z" fill="white"/>
<path d="M76 52C76 23.2812 99.2812 0 128 0H138C139.105 0 140 0.895431 140 2V48C140 76.7188 116.719 100 88 100H78C76.8954 100 76 99.1046 76 98V52Z" fill="white"/>
<path d="M76 114C76 112.895 76.8954 112 78 112H120C146.51 112 168 133.49 168 160V166C168 167.105 167.105 168 166 168H124C97.4903 168 76 146.51 76 120V114Z" fill="white"/>
</svg>
